<svg width="703" height="872" viewBox="0 0 703 872" fill="none" xmlns="http://www.w3.org/2000/svg">
<path d="M636.253 861.714C589.228 845.197 502.891 784.041 502.891 767.248C502.891 764.377 492.17 743.654 479.068 721.198C464.43 696.11 447.765 650.622 435.846 603.22C418.355 533.658 416.517 514.864 417.157 412.103C417.769 313.712 416.391 298.134 407.071 298.134C389.372 298.134 269.71 326.266 256.589 333.512C249.913 337.198 239.876 340.215 234.284 340.215C213.338 340.215 216.837 353.838 240.702 365.201L265.426 376.973L261.801 416.455C259.808 438.17 256.369 464.616 254.159 475.224C249.405 498.043 248.165 497.875 311.558 483.001C366.467 470.117 384.783 472.692 379.603 492.568C376.97 502.67 364.611 507.365 323.285 513.962C255.518 524.781 248.649 530.472 254.021 571.355C256.324 588.88 260.145 644.942 262.511 695.937L266.813 788.654L248.266 797.133C210.524 814.388 181.324 788.897 161.78 721.635C150.95 684.363 151.013 683.874 166.624 683.874C183.874 683.874 188.129 671.293 193.202 605.292L197.404 550.619L166.66 551.152C149.752 551.446 125.098 555.608 111.874 560.402C86.344 569.658 74.7389 585.686 93.5676 585.686C126.362 585.686 127.302 705.745 94.6782 727.601C78.6221 738.358 55.6074 732.59 44.0662 714.917C32.8277 697.707 33.0242 695.337 48.2814 664.07C82.6049 593.73 80.0542 574.6 36.7095 577.284C-17.3378 580.63 -10.6032 567.041 49.6486 551.176C135.385 528.599 131.697 530.955 110.34 512.415C91.3588 495.938 69.5121 459.764 69.5121 444.812C69.5121 438.997 78.9271 437.791 100.814 440.801C144.883 446.862 159.998 458.35 165 489.582C168.117 509.05 172.3 515.627 180.551 514.033C194.087 511.418 196.676 479.036 187.429 428.006C177.63 373.928 171.302 370.539 106.303 384.553C41.7376 398.474 39.6279 398.608 42.9619 388.572C45.9143 379.685 57.8258 375.019 219.797 319.292C285.153 296.806 360.233 270.222 386.641 260.217C436.915 241.17 493.467 236.472 517.45 249.35C530.781 256.509 530.717 257.184 514.631 279.158C505.579 291.523 492.941 313.168 486.548 327.256C474.642 353.491 460.054 437.631 465.738 447.279C467.477 450.233 470.588 472.325 472.649 496.374C477.083 548.098 516.3 672.136 540.26 710.218C557.18 737.112 603.248 782.063 613.89 782.063C625.557 782.063 656.67 733.675 656.67 715.53C656.67 693.086 672.128 706.523 688.166 742.908C706.156 783.725 707.939 829.163 692.66 857.458C682.721 875.864 677.631 876.248 636.253 861.714ZM369.335 697.265C346.671 684.929 275.875 616.847 275.61 607.134C275.551 604.981 272.877 599.065 269.667 593.986C260.199 579.005 268.497 577.275 311.73 585.215C366.013 595.184 405.492 623.098 418.597 660.777C426.936 684.751 427.089 691.642 419.489 700.831C407.918 714.819 400.632 714.302 369.335 697.265ZM284.255 415.609C286.297 399.215 289.993 383.529 292.468 380.752C296.743 375.954 367.672 391.567 374.999 398.919C382.628 406.573 368.79 415.884 337.059 424.448C318.699 429.403 300.688 436.148 297.036 439.437C283.955 451.216 280.599 444.958 284.255 415.609ZM146.402 242.47C152.169 239.092 183.624 228.343 216.302 218.584C248.98 208.824 294.589 192.823 317.656 183.025C360.506 164.824 386.456 161.501 425.127 169.261C457.293 175.716 451.755 190.634 413.769 199.859C395.507 204.293 355.402 213.862 324.646 221.122C293.89 228.382 257.738 237.634 244.308 241.681C214.248 250.739 131.144 251.409 146.402 242.47ZM106.21 185.7C86.2928 177.667 86.4556 175.762 109.705 144.819C154.383 85.3538 183.66 22.5304 179.607 -5.17968L176.562 -26L209.843 -21.5702C228.147 -19.1339 253.059 -13.6655 265.202 -9.41827C284.411 -2.69944 286.702 0.696471 282.834 16.7164C277.447 39.0273 236.513 108.77 228.805 108.77C225.773 108.77 223.292 113.564 223.292 119.424C223.292 134.031 245.578 127.848 328.966 90.105C399.578 58.1455 440.563 51.8065 464.246 69.1819C487.559 86.2863 472.833 101.757 433.238 101.757C413.91 101.757 379.998 107.79 357.877 115.164C335.756 122.538 291.251 132.463 258.977 137.22C223.762 142.41 195.718 150.463 188.846 157.359C178.71 167.528 130.766 193.652 124.376 192.487C123.034 192.243 114.86 189.188 106.21 185.7Z" fill="white" fill-opacity="0.08"/>
</svg>
